<svg width="60" height="60" viewBox="0 0 60 60" fill="none" xmlns="http://www.w3.org/2000/svg">
<path d="M14.3163 0.5H45.6837C53.3142 0.5 59.5 6.68578 59.5 14.3163V45.6837C59.5 53.3142 53.3142 59.5 45.6837 59.5H14.3163C6.68578 59.5 0.5 53.3142 0.5 45.6837V14.3163C0.5 6.68578 6.68578 0.5 14.3163 0.5Z" stroke="#3A3A3A"/>
<path d="M39.446 27.9518H34.4444V32.071H38.731C42.3671 32.071 45.2311 35.0301 45.2311 38.6662C45.2311 42.3023 42.3671 45.2615 38.731 45.2615C35.0948 45.2615 32.2765 42.3023 32.2765 38.6662V21.3756C32.2765 15.4687 27.3319 10.6611 21.4213 10.6611C15.5107 10.6611 10.5662 15.4687 10.5662 21.3756C10.5662 27.2824 14.7994 32.09 20.7063 32.09H25.7421V27.9708H21.4213C17.7852 27.9708 14.9212 25.0117 14.9212 21.3756C14.9212 17.7394 17.7852 14.7803 21.4213 14.7803C25.0574 14.7803 27.872 17.7394 27.872 21.3756V38.6662C27.872 44.573 32.8204 49.3806 38.7272 49.3806C44.634 49.3806 49.5823 44.573 49.5823 38.6662C49.5823 32.7594 45.349 27.9518 39.4422 27.9518H39.446Z" fill="#F9F7E5"/>
<path d="M38.7309 49.4372C35.8517 49.4372 33.1208 48.3152 31.0479 46.2803C28.9635 44.234 27.8187 41.5298 27.8187 38.6657V21.3751C27.8187 17.7085 25.0117 14.8407 21.425 14.8407C19.6868 14.8407 18.0628 15.5215 16.8532 16.7577C15.6475 17.9862 14.9819 19.6293 14.9819 21.3789C14.9819 23.1285 15.6475 24.7678 16.8532 26.0001C18.0628 27.2363 19.6868 27.9171 21.425 27.9171H25.8029V32.1504H20.71C17.8726 32.1504 15.2672 31.0283 13.3807 28.9897C11.5284 26.989 10.509 24.2886 10.509 21.3789C10.509 18.4692 11.6577 15.8106 13.7382 13.7643C15.8111 11.7295 18.542 10.6074 21.4212 10.6074C24.3005 10.6074 27.0314 11.7295 29.1043 13.7643C31.1886 15.8106 32.3334 18.5149 32.3334 21.3789V38.6695C32.3334 42.3361 35.1404 45.2039 38.7271 45.2039C40.4653 45.2039 42.0894 44.5231 43.2989 43.287C44.5046 42.0585 45.1702 40.4153 45.1702 38.6657C45.1702 36.9161 44.5046 35.2768 43.2989 34.0445C42.0894 32.8084 40.4653 32.1276 38.7271 32.1276H34.3835V27.8943H39.4422C42.2796 27.8943 44.8849 29.0163 46.7715 31.055C48.6238 33.0518 49.6431 35.7561 49.6431 38.6657C49.6431 41.5754 48.4945 44.234 46.4139 46.2803C44.341 48.3152 41.6101 49.4372 38.7309 49.4372ZM21.425 14.7228C25.0764 14.7228 27.9366 17.6439 27.9366 21.3751V38.6657C27.9366 41.4993 29.07 44.1732 31.1315 46.1966C33.1854 48.2125 35.8821 49.3193 38.7347 49.3193C41.5873 49.3193 44.284 48.2087 46.3379 46.1966C48.3994 44.1732 49.5328 41.4993 49.5328 38.6657C49.5328 35.8321 48.5249 33.1127 46.6916 31.1348C44.8279 29.1228 42.2529 28.0122 39.4498 28.0122H34.509V32.0134H38.7385C40.5071 32.0134 42.1616 32.7057 43.394 33.9646C44.6225 35.216 45.2957 36.8857 45.2957 38.6657C45.2957 40.4458 44.6187 42.1155 43.394 43.3669C42.1616 44.6258 40.5071 45.318 38.7385 45.318C35.0872 45.318 32.2269 42.397 32.2269 38.6657V21.3751C32.2269 18.5415 31.0935 15.8676 29.0358 13.8442C26.9819 11.8283 24.2853 10.7215 21.4326 10.7215C18.58 10.7215 15.8834 11.8321 13.8295 13.8442C11.768 15.8676 10.6345 18.5415 10.6345 21.3751C10.6345 24.2087 11.6425 26.9282 13.4758 28.906C15.3395 30.918 17.9144 32.0287 20.7176 32.0287H25.6926V28.0274H21.4326C19.664 28.0274 18.0095 27.3352 16.7772 26.0762C15.5487 24.8249 14.8754 23.1551 14.8754 21.3751C14.8754 19.5951 15.5525 17.9253 16.7772 16.674C18.0095 15.415 19.664 14.7228 21.4326 14.7228H21.425Z" fill="#DFDDD0"/>
</svg>
