<svg xmlns="http://www.w3.org/2000/svg" width="625" height="625" fill="none" viewBox="0 0 625 625"><g clip-path="url(#a)"><path fill="#09090b" d="M0 0h625v625H0z"/><path fill="url(#b)" fill-rule="evenodd" d="M205.472 405.714c12.327 2.526 21.037.743 22.388.955l.066.014c20.512 10.23 35.431 18.939 49.826 24.504q-.85.071-1.716.148a5850 5850 0 0 0-25.287 3.704c-52.698 7.902-78.57-5.888-72.908-27.106 2.284-8.559 15.085-4.79 27.631-2.219m177.013-206.019c33.374 22.722 42.966 34.525 60.711 52.654 43.563 0 67.89 29.998 60.089 74.735-4.962 28.458-66.755 18.452-81.4 0q-14.655 12.23-72.038 54.197-.744.527-1.633 1.178c-11.19 8.2-54.332 5.578-58.458 2.778q12.96-19.642 18.682-30.688c5.721-11.046 9.718-22.118 9.718-40.463s-11.176-33.929-34.829-33.523c-2.075.036-4.409 1.499-4.409 4.374s2.332 4.375 4.409 4.375c12.525 0 21.306 14.341 21.312 24.774.006 10.432-1.796 18.895-7.146 31.612-4.62 10.983-23.231 38.261-28.072 40.98a3.923 3.923 0 0 0-1.385 5.568c.393.605.775.925 1.24 1.219.282.179.532.298.827.419q.5.205 1.261.438c1.045.321 2.448.687 4.077 1.055 4.204.95 9.35 1.799 15.118 2.409 15.88 1.68 33.687 1.335 52.659-1.777l.73-.121c5.67-.95 13.922-1.026 22.065-.046 9.539 1.148 18.226 3.612 24.83 7.298 5.798 3.236 9.797 7.276 11.833 12.169q1.469 4.115 1.469 8.89c0 16.043-37.122 6.434-80.052 4.704q-4.043-.163-9.799-.026c-17.525-.808-31.942-5.529-51.258-14.416l.339-.059-.043-.017c-.26-.102-1.672-.658-3.801-1.557-5.721-2.694-11.886-5.734-18.682-9.124l-.045.011c-6.411-3.684-12.054-7.813-13.488-11.512-3.738-9.64-1.897-9.64 11.504-23.884-22.551 2.546-23.421 4.051-48.425 4.093l-1.086.001c-26.07 0-69.038-1.232-69.038-24.755q0-23.524 34.761-18.299-8.476-42.783 29.069-77.01c65.565-59.769 154.076 22.589 214.747 22.589 27.602 0-48.653-39.892-80.352-51.196s18.193-55.226 63.989-24.047m76.385 82.232c-4.986 0-9.028 4.009-9.028 8.954s4.042 8.954 9.028 8.954 9.029-4.009 9.029-8.954-4.043-8.954-9.029-8.954" clip-rule="evenodd"/><path fill="#e4e4e7" d="M66.507 237.105q0 19.639-2.225 32.105t-10.697 20.492T28 298.753v28.689q22.077 1.366 30.292 14.857t8.215 43.888v25.444q0 38.595 12.664 54.476c8.443 10.587 14.902 15.881 34.754 15.881h14.034v-27.664h-6.675c-9.355 0-8.512-1.167-12.847-3.501q-6.504-3.501-8.386-10.332-1.818-6.595-1.88-19.08l-.003-33.517q0-31.08-8.472-48.583-8.47-17.505-30.548-26.213 18.996-8.368 27.211-20.493t10.012-26.469l.15-1.246q1.647-14.298 1.647-41.275v-15.028q0-16.906 2.738-24.42 2.738-7.513 9.413-9.99c4.45-1.651 3.891-2.476 13.704-2.476h3.936v-27.494h-8.044c-17.342 0-22.631 2.504-31.246 7.514q-12.92 7.513-17.542 23.395-4.525 15.55-4.618 44.036zM558.493 237.105q0 19.639 2.225 32.105t10.697 20.492q8.471 8.027 25.585 9.051v28.689q-22.077 1.366-30.292 14.857t-8.215 43.888v25.444q0 38.595-12.664 54.476c-8.443 10.587-14.902 15.881-34.754 15.881h-14.034v-27.664h6.675c9.355 0 8.512-1.167 12.848-3.501q6.503-3.501 8.385-10.332 1.818-6.595 1.881-19.08l.002-33.517q0-31.08 8.472-48.583 8.47-17.505 30.549-26.213-18.998-8.368-27.212-20.493-8.215-12.125-10.012-26.469l-.15-1.246q-1.647-14.298-1.647-41.275v-15.028q0-16.906-2.738-24.42-2.738-7.513-9.413-9.99c-4.45-1.651-3.891-2.476-13.704-2.476h-3.936v-27.494h8.044c17.342 0 22.631 2.504 31.245 7.514q12.922 7.513 17.543 23.395 4.524 15.55 4.618 44.036z"/><g opacity=".3"><path fill="url(#c)" d="M244 491h761V0H244z"/><path fill="url(#d)" fill-opacity=".06" d="M244 491h761V0H244z"/></g><g opacity=".3"><path fill="url(#e)" d="M381 134h-761v491h761z"/><path fill="url(#f)" fill-opacity=".06" d="M381 134h-761v491h761z"/></g></g><defs><radialGradient id="c" cx="0" cy="0" r="1" gradientTransform="matrix(0 462.767 -352 0 624.5 -71.195)" gradientUnits="userSpaceOnUse"><stop stop-color="#e98234"/><stop offset="1" stop-color="#120b1b" stop-opacity="0"/></radialGradient><radialGradient id="d" cx="0" cy="0" r="1" gradientTransform="matrix(0 62.6536 -267.834 0 624.5 0)" gradientUnits="userSpaceOnUse"><stop stop-color="#fff" stop-opacity=".5"/><stop offset="1" stop-color="#fff" stop-opacity="0"/></radialGradient><radialGradient id="e" cx="0" cy="0" r="1" gradientTransform="matrix(0 -462.768 352 0 .5 696.195)" gradientUnits="userSpaceOnUse"><stop stop-color="#e98234"/><stop offset="1" stop-color="#120b1b" stop-opacity="0"/></radialGradient><radialGradient id="f" cx="0" cy="0" r="1" gradientTransform="matrix(0 -62.6536 267.834 0 .5 625)" gradientUnits="userSpaceOnUse"><stop stop-color="#fff" stop-opacity=".5"/><stop offset="1" stop-color="#fff" stop-opacity="0"/></radialGradient><linearGradient id="b" x1="312.5" x2="312.5" y1="188.707" y2="500.252" gradientUnits="userSpaceOnUse"><stop stop-color="#fb905c"/><stop offset="1" stop-color="#d8390e"/></linearGradient><clipPath id="a"><path fill="#fff" d="M0 0h625v625H0z"/></clipPath></defs></svg>
