<svg width="572" height="101" viewBox="0 0 572 101" fill="none" xmlns="http://www.w3.org/2000/svg"><path d="M370.228 0V100.61H571.448V0H370.228ZM567.423 96.5856H374.252V4.0244H567.423V96.5856ZM396.623 52.2674C396.623 42.1817 405.138 36.2615 412.777 36.2615C418.246 36.2615 423.347 38.3119 426.076 43.0367L420.967 45.9988C420.087 44.6697 418.883 43.5796 417.472 42.8341C416.057 42.0885 414.48 41.6995 412.878 41.7116C408.386 41.7116 403.042 45.2167 403.042 52.162C403.042 59.1074 408.151 62.6732 413.304 62.6732C416.888 62.6732 419.864 60.6756 421.628 57.5919L426.85 60.0029C423.894 65.3193 418.611 68.1517 412.477 68.1517C404.761 68.1436 396.623 62.2154 396.623 52.2633V52.2674ZM445.493 68.1517C449.738 68.1517 453.748 66.2796 455.816 63.5607V67.3008H462.125V37.0436H455.816V40.7918C453.85 38.0485 449.746 36.2615 445.493 36.2615C436.2 36.2615 429.701 43.0245 429.701 52.2066C429.701 61.3887 436.261 68.1517 445.493 68.1517ZM446.101 41.9993C451.932 41.9993 455.934 46.3472 455.934 52.2066C455.934 58.066 451.928 62.4139 446.101 62.4139C440.275 62.4139 436.139 58.0052 436.139 52.0851C436.139 46.1649 440.271 41.9993 446.101 41.9993ZM496.029 43.0488H489.481V37.0071H496.09V29.1217H502.59V37.0071H509.195V43.0488H502.59V67.2886H496.029V43.0488ZM527.315 68.1517C531.568 68.1517 535.578 66.2796 537.646 63.5607V67.3008H543.963V37.0436H537.646V40.7918C535.679 38.0485 531.576 36.2615 527.315 36.2615C518.03 36.2615 511.53 43.0245 511.53 52.2066C511.53 61.3887 518.086 68.1517 527.315 68.1517ZM527.931 41.9993C533.753 41.9993 537.767 46.3472 537.767 52.2066C537.767 58.066 533.753 62.4139 527.931 62.4139C522.108 62.4139 517.969 58.0052 517.969 52.0851C517.969 46.1649 522.1 41.9993 527.931 41.9993ZM476.409 67.2602H469.849V37.0031H475.858V42.6355C477.346 39.2885 479.58 37.1084 483.213 36.9261C483.963 36.9139 484.709 36.9261 485.459 37.0071L485.359 43.061C480.14 43.061 476.413 45.8569 476.413 53.6532V67.2643L476.409 67.2602Z" fill="#FBF8F7"/><path d="M0 67.2018V65.4679L2.60086 65.0633C4.62375 64.7743 4.97053 64.3119 4.97053 61.9422V28.6512C4.97053 26.2816 4.62375 25.8192 2.60086 25.5302L0 25.1256V23.3917H19.8243C28.3205 23.3917 37.4524 25.4146 37.4524 35.1245C37.4524 42.9849 30.0544 47.3774 19.8821 47.3774H10.9814V62C10.9814 64.3119 11.3282 64.7743 13.3511 64.9477L17.6858 65.3523V67.2018H0ZM10.9814 27.0907V44.8922H20.5179C26.76 44.8922 30.6323 42.0601 30.6323 35.2979C30.6323 28.5356 26.76 25.7036 20.5179 25.7036H13.8713C11.4438 25.7036 10.9814 25.877 10.9814 27.0907Z" fill="#FBF8F7"/><path d="M54.8109 67.8953C46.3725 67.8953 39.6681 61.8844 39.6681 52.5791C39.6681 43.2738 46.3725 37.263 54.8109 37.263C63.2492 37.263 69.9536 43.2738 69.9536 52.5791C69.9536 61.8844 63.2492 67.8953 54.8109 67.8953ZM54.8109 65.6412C59.6658 65.6412 64.0006 61.7111 64.0006 52.5791C64.0006 43.4472 59.6658 39.5171 54.8109 39.5171C49.9559 39.5171 45.6212 43.4472 45.6212 52.5791C45.6212 61.7111 49.9559 65.6412 54.8109 65.6412Z" fill="#FBF8F7"/><path d="M87.6815 67.8375L76.6423 42.2335C76.1221 41.0776 75.8331 40.6152 73.8102 40.1528L72.0763 39.7482V38.1877H86.41V39.7482L84.5604 40.1528C82.5376 40.6152 81.9596 41.0776 82.4798 42.2335L90.2823 60.6129L96.4088 46.6261L92.8832 38.1877H104.385V39.7482L102.535 40.1528C100.512 40.6152 99.9922 41.0776 100.455 42.2335L107.853 60.6129L115.655 42.2335C116.175 41.0776 115.771 40.6152 113.748 40.1528L111.898 39.7482V38.1877H122.995V39.7482L121.261 40.1528C119.239 40.6152 118.95 41.0776 118.429 42.2335L107.332 67.8375H105.252L97.7381 49.8627L89.7622 67.8375H87.6815Z" fill="#FBF8F7"/><path d="M139.946 67.8953C130.988 67.8953 125.15 61.4221 125.15 52.7525C125.15 43.0427 132.433 37.263 139.599 37.263C146.824 37.263 152.43 41.7711 153.644 49.9205H130.641C130.641 50.0939 130.641 50.2673 130.641 50.4407C130.641 59.0524 135.091 64.2541 141.911 64.2541C146.073 64.2541 150.465 62.6936 152.257 56.4515H154.106C152.488 64.0229 147.518 67.8953 139.946 67.8953ZM139.484 39.4015C135.265 39.4015 131.739 42.2335 130.872 47.6086H147.575C147.113 41.7133 143.818 39.4015 139.484 39.4015Z" fill="#FBF8F7"/><path d="M159.249 67.2018V65.6412L161.099 65.2367C163.122 64.7743 163.469 64.4275 163.469 63.156V42.8693C163.469 41.5977 163.122 41.251 161.099 40.7886L159.249 40.384V38.8235L168.67 37.4942V44.7188C170 39.806 174.045 37.4364 177.282 37.4364C179.594 37.4364 181.443 38.5345 181.443 40.9042C181.443 42.8115 179.998 44.083 178.265 44.083C175.837 44.083 175.201 41.7133 172.889 41.7133C170.924 41.7133 168.67 44.5454 168.67 48.2444V63.156C168.67 64.4275 169.017 64.8321 171.04 65.1211L174.045 65.5257V67.2018H159.249Z" fill="#FBF8F7"/><path d="M199.407 67.8953C190.448 67.8953 184.611 61.4221 184.611 52.7525C184.611 43.0427 191.893 37.263 199.06 37.263C206.285 37.263 211.891 41.7711 213.105 49.9205H190.102C190.102 50.0939 190.102 50.2673 190.102 50.4407C190.102 59.0524 194.552 64.2541 201.372 64.2541C205.533 64.2541 209.926 62.6936 211.718 56.4515H213.567C211.949 64.0229 206.978 67.8953 199.407 67.8953ZM198.945 39.4015C194.725 39.4015 191.2 42.2335 190.333 47.6086H207.036C206.574 41.7133 203.279 39.4015 198.945 39.4015Z" fill="#FBF8F7"/><path d="M232.581 67.8953C225.241 67.8953 218.884 62.1156 218.884 52.9837C218.884 43.794 225.415 37.263 233.911 37.263C237.494 37.263 239.806 38.7657 241.193 40.095V26.6861C241.193 25.4146 240.846 24.8944 238.823 24.6055L235.818 24.2009V22.6404L246.395 21.311V62.2312C246.395 63.5028 246.742 63.8495 248.765 64.3119L250.614 64.7165V66.277L241.193 67.4329V63.7339C240.153 64.8899 237.205 67.8953 232.581 67.8953ZM235.298 64.6587C238.246 64.6587 240.095 63.6184 241.193 62.6936V41.3666C239.517 40.3262 237.841 39.7482 235.356 39.7482C229.229 39.7482 224.663 44.372 224.663 51.9434C224.663 59.8038 229.171 64.6587 235.298 64.6587Z" fill="#FBF8F7"/><path d="M286.714 67.8953C283.131 67.8953 280.53 66.3926 279.143 65.0633L274.635 67.8375H274.23V26.6861C274.23 25.4146 273.883 25.0678 271.86 24.6055L270.011 24.2009V22.6404L279.432 21.311V41.4244C280.472 40.2684 283.42 37.263 288.043 37.263C295.384 37.263 301.741 43.0427 301.741 52.1746C301.741 61.3643 295.21 67.8953 286.714 67.8953ZM285.327 40.4996C282.379 40.4996 280.53 41.5399 279.432 42.4647V63.7917C281.108 64.8321 282.784 65.4101 285.269 65.4101C291.396 65.4101 295.962 60.7863 295.962 53.2149C295.962 45.3545 291.453 40.4996 285.327 40.4996Z" fill="#FBF8F7"/><path d="M311.899 81.8244C310.107 81.8244 309.067 80.495 309.067 79.1657C309.067 77.6052 310.223 76.2759 312.65 75.2933C314.789 74.4264 315.771 74.0218 316.812 71.6521L319.124 66.5082L308.662 42.2335C308.142 41.0776 307.853 40.6152 305.83 40.1528L304.096 39.7482V38.1877H318.43V39.7482L316.581 40.1528C314.558 40.6152 313.98 41.0776 314.5 42.2335L322.071 60.0927L330.105 42.2335C330.625 41.0776 330.221 40.6152 328.198 40.1528L326.348 39.7482V38.1877H337.445V39.7482L335.711 40.1528C333.688 40.6152 333.4 41.0776 332.879 42.2335L317.39 76.3915C315.482 80.6106 313.575 81.8244 311.899 81.8244Z" fill="#FBF8F7"/></svg>