<svg xmlns="http://www.w3.org/2000/svg" width="512" height="512" viewBox="0 0 512 512">
<rect width="512" height="512" fill="#3448C5"/>
<path d="M 115.0 382.5 L 92.0 368.5 L 74.5 350.0 L 63.5 331.0 L 55.5 300.0 L 56.5 275.0 L 62.5 254.0 L 76.5 230.0 L 93.0 213.5 L 114.0 200.5 L 135.0 194.5 L 150.5 173.0 L 170.0 153.5 L 191.0 139.5 L 216.0 129.5 L 243.0 124.5 L 272.0 125.5 L 302.0 133.5 L 322.0 143.5 L 340.0 156.5 L 354.5 171.0 L 370.5 194.0 L 378.5 214.0 L 382.0 218.5 L 391.0 219.5 L 411.0 227.5 L 424.0 236.5 L 436.5 249.0 L 443.5 259.0 L 452.5 280.0 L 455.5 295.0 L 455.5 312.0 L 453.5 323.0 L 445.5 343.0 L 433.5 359.0 L 421.0 369.5 L 405.0 378.5 L 394.0 381.5 L 393.5 356.0 L 406.0 349.5 L 418.5 338.0 L 423.5 331.0 L 429.5 316.0 L 429.5 291.0 L 426.5 281.0 L 419.5 268.0 L 410.0 257.5 L 393.0 246.5 L 379.0 242.5 L 362.0 242.5 L 359.5 240.0 L 357.5 228.0 L 351.5 212.0 L 341.5 195.0 L 327.0 178.5 L 305.0 162.5 L 280.0 152.5 L 262.0 149.5 L 245.0 149.5 L 223.0 153.5 L 198.0 164.5 L 184.0 174.5 L 167.5 192.0 L 153.0 217.5 L 144.0 217.5 L 129.0 221.5 L 108.0 233.5 L 94.5 248.0 L 85.5 264.0 L 80.5 284.0 L 81.5 305.0 L 86.5 321.0 L 92.5 332.0 L 105.0 346.5 L 115.5 354.0 L 115.0 382.5 Z" fill="#FFFFFF"/>
<path d="M 210.0 386.5 L 163.0 386.5 L 154.0 382.5 L 149.5 378.0 L 146.5 371.0 L 146.5 284.0 L 144.0 281.5 L 136.0 281.5 L 134.5 280.0 L 172.0 242.5 L 174.0 242.5 L 210.5 279.0 L 209.0 281.5 L 202.0 281.5 L 199.5 284.0 L 199.5 371.0 L 210.5 385.0 L 210.0 386.5 Z" fill="#FFFFFF"/>
<path d="M 291.0 386.5 L 244.0 386.5 L 237.0 383.5 L 230.5 377.0 L 228.5 372.0 L 227.5 305.0 L 225.0 302.5 L 217.0 302.5 L 216.5 301.0 L 254.0 263.5 L 292.5 301.0 L 291.0 302.5 L 283.0 302.5 L 280.5 305.0 L 280.5 369.0 L 283.5 376.0 L 292.5 385.0 L 291.0 386.5 Z" fill="#FFFFFF"/>
<path d="M 373.0 386.5 L 326.0 386.5 L 318.0 383.5 L 310.5 374.0 L 309.5 326.0 L 307.0 323.5 L 299.0 323.5 L 298.5 321.0 L 335.0 284.5 L 373.5 322.0 L 373.0 323.5 L 365.0 323.5 L 362.5 326.0 L 362.5 371.0 L 373.5 385.0 L 373.0 386.5 Z" fill="#FFFFFF"/>
</svg>